<?xml version="1.0" standalone="no"?>
<!DOCTYPE svg PUBLIC "-//W3C//DTD SVG 20010904//EN"
 "http://www.w3.org/TR/2001/REC-SVG-20010904/DTD/svg10.dtd">
<svg version="1.0" xmlns="http://www.w3.org/2000/svg"
 width="1000.000000pt" height="713.000000pt" viewBox="0 0 1000.000000 713.000000"
 preserveAspectRatio="xMidYMid meet">

<g transform="translate(0.000000,713.000000) scale(0.100000,-0.100000)"
fill="#000000" stroke="none">
<path d="M5595 7114 c-124 -24 -253 -55 -340 -83 -122 -39 -408 -116 -525
-141 -378 -81 -541 -137 -548 -188 -2 -12 -8 -22 -13 -22 -5 0 -9 -9 -9 -20 0
-11 5 -20 10 -20 6 0 10 -9 10 -20 0 -11 4 -20 8 -20 5 0 19 -21 31 -46 28
-55 24 -93 -13 -153 -34 -54 -36 -129 -3 -174 54 -76 58 -105 26 -170 -23 -49
-27 -162 -8 -238 9 -35 9 -57 1 -92 -20 -80 -15 -133 19 -195 17 -32 35 -61
40 -66 13 -14 11 -83 -2 -108 -6 -12 -21 -31 -33 -43 -56 -58 -66 -76 -66
-117 0 -29 8 -51 27 -77 15 -20 31 -37 35 -39 4 -2 8 -10 8 -18 0 -8 3 -14 8
-14 18 0 34 -62 27 -108 -3 -26 -10 -121 -13 -212 -5 -119 -12 -175 -23 -200
-31 -67 -39 -91 -39 -116 0 -26 39 -117 52 -122 4 -2 8 -12 8 -22 0 -10 4 -20
9 -22 5 -1 11 -19 13 -38 l3 -35 -1752 -875 -1753 -876 -132 -12 c-303 -27
-378 -87 -552 -439 -77 -156 -90 -196 -76 -222 11 -22 219 -163 408 -276 98
-58 148 -90 152 -95 3 -3 56 -38 118 -76 110 -67 145 -89 395 -245 67 -42 136
-84 152 -93 17 -9 77 -48 135 -86 91 -60 318 -205 368 -235 33 -19 268 -169
402 -255 75 -48 153 -96 175 -107 51 -26 226 -38 1015 -73 140 -6 305 -15 365
-20 61 -5 223 -15 360 -21 138 -6 320 -15 405 -19 85 -4 292 -13 460 -19 168
-6 341 -16 385 -21 97 -13 352 -28 660 -40 127 -5 248 -12 270 -14 22 -3 175
-7 340 -9 396 -5 732 -24 -3310 191 l-890 48 -517 329 c-285 182 -796 508
-1138 725 -341 217 -620 398 -620 401 0 4 251 5 557 3 307 -2 1805 -6 3328 -9
3134 -5 4502 -19 5370 -55 231 -10 424 -25 433 -35 3 -3 -8 -15 -24 -27 -81
-64 -229 -192 -313 -271 -112 -106 -674 -598 -1178 -1032 -313 -269 -357 -310
-335 -313 15 -2 28 1 30 7 2 6 47 45 100 87 54 42 120 97 147 123 28 26 80 70
116 98 36 29 84 69 106 90 57 55 91 84 153 131 30 22 63 49 72 59 9 10 23 23
30 28 12 9 120 99 178 148 14 12 68 57 120 101 52 43 115 97 140 120 25 23 84
75 130 116 47 41 87 77 90 80 3 3 18 16 34 28 16 12 74 64 130 116 105 97 129
118 290 251 54 44 106 94 116 111 11 17 28 38 39 48 23 21 17 52 -24 122 -39
66 -158 148 -278 190 -37 13 -303 154 -472 249 -71 40 -113 64 -182 101 -37
20 -94 52 -126 70 -32 19 -60 34 -61 34 -3 0 -109 58 -201 110 -22 12 -74 41
-115 63 -41 22 -149 82 -240 132 -235 131 -531 295 -705 390 -38 21 -79 43
-90 50 -11 7 -51 29 -90 50 -195 104 -243 130 -275 150 -19 12 -84 48 -145 80
-60 32 -127 69 -147 82 -21 13 -39 23 -42 23 -3 0 -90 48 -196 107 -157 88
-275 153 -325 178 -22 11 -41 23 -43 28 -2 4 -8 7 -13 7 -5 0 -46 20 -89 45
-44 25 -102 57 -128 72 -78 43 -122 73 -122 81 0 5 9 37 20 71 19 56 19 64 5
84 -8 12 -15 30 -15 39 0 10 -4 26 -9 36 -33 65 -36 79 -33 166 2 103 -6 131
-57 195 -32 40 -36 50 -34 99 1 30 7 60 12 65 18 18 13 159 -6 198 -41 80 -58
188 -33 204 6 3 10 15 10 27 0 11 8 32 18 46 59 86 69 174 26 237 -14 21 -32
45 -41 53 -22 22 -53 92 -53 120 0 13 7 46 16 73 21 64 15 149 -17 214 -16 34
-24 67 -24 106 0 52 5 69 39 139 19 38 9 98 -28 179 -15 34 -14 197 2 213 14
14 16 84 2 93 -5 3 -10 14 -10 24 0 10 -7 33 -16 51 -18 35 -13 132 7 156 6 7
9 28 7 46 l-3 34 -60 -12z m25 -44 c0 -11 -7 -37 -15 -57 -21 -50 -19 -85 10
-153 27 -64 33 -128 13 -134 -7 -2 -116 -11 -243 -20 -307 -22 -568 -51 -690
-77 -89 -19 -343 -98 -387 -120 -12 -7 -18 -4 -23 11 -3 10 -24 41 -46 67 -49
60 -49 83 -2 122 49 40 112 60 383 121 245 55 293 68 600 158 371 110 400 116
400 82z m-305 -515 c97 -16 229 -50 254 -66 12 -8 9 -9 -12 -4 -126 26 -269
27 -551 0 -360 -34 -663 -96 -763 -155 -41 -24 -42 -13 -1 60 36 65 35 65 215
109 313 76 607 95 858 56z m250 -106 c64 -12 115 -43 115 -69 0 -11 -14 -48
-31 -83 l-32 -64 -291 -6 c-301 -6 -692 -36 -826 -63 -63 -13 -119 -32 -209
-71 -9 -4 -12 -2 -7 6 12 19 -4 68 -40 121 -19 27 -34 54 -34 58 0 14 135 68
226 91 285 72 929 118 1129 80z m-65 -385 c79 -8 147 -17 152 -22 4 -4 11 -26
16 -49 12 -51 22 -49 -169 -31 -140 13 -325 4 -693 -33 -238 -24 -368 -48
-465 -88 l-72 -29 -15 36 c-9 21 -18 51 -21 68 -5 31 -5 31 78 58 188 63 333
88 624 110 88 7 416 -5 565 -20z m48 -150 c61 -3 112 -8 112 -11 0 -3 -8 -27
-17 -53 -22 -62 -9 -110 53 -185 37 -46 64 -92 64 -110 0 -2 -24 7 -52 20 -69
31 -255 71 -392 84 -290 29 -944 1 -1058 -44 -23 -9 -24 27 -3 78 8 20 15 49
15 65 0 23 6 32 28 40 144 55 481 104 832 122 152 8 187 7 418 -6z m-211 -300
c173 -20 267 -41 346 -76 50 -23 67 -36 67 -51 0 -14 -5 -18 -17 -14 -220 65
-351 86 -583 94 -236 8 -537 -17 -790 -65 -46 -9 -46 -9 -79 35 -19 24 -31 46
-28 49 18 18 220 37 502 48 150 5 452 -5 582 -20z m23 -189 c88 -13 274 -54
317 -70 8 -3 7 -17 -5 -55 -17 -51 -17 -51 -52 -46 -19 4 -145 13 -280 22
-362 24 -950 7 -1073 -30 -26 -8 -47 -12 -47 -8 0 3 24 30 53 61 30 31 56 61
58 66 6 15 270 65 394 75 161 12 511 4 635 -15z m-75 -185 c266 -14 395 -33
374 -55 -9 -8 -254 -42 -394 -55 -158 -14 -593 -30 -822 -30 l-181 0 -26 31
c-14 17 -26 41 -26 54 0 22 6 24 113 39 61 9 132 18 157 19 112 8 633 6 805
-3z m453 -211 c2 -19 -2 -51 -8 -72 -9 -31 -19 -42 -53 -57 -103 -45 -386 -62
-950 -58 l-416 3 6 75 c4 61 2 83 -12 109 l-17 34 29 -8 c167 -42 460 -59 888
-52 335 6 413 14 480 49 40 21 49 17 53 -23z m-28 -252 c0 -7 13 -28 28 -47
39 -47 52 -74 52 -105 0 -24 -3 -26 -24 -21 -126 31 -337 33 -691 6 -417 -32
-682 -67 -768 -99 -32 -13 -33 -11 -7 31 11 18 20 50 20 71 0 20 3 37 6 37 4
0 72 11 153 25 417 69 812 111 1089 114 109 1 142 -2 142 -12z m13 -207 l57
-13 0 -43 c0 -23 3 -49 6 -58 5 -13 -2 -16 -43 -16 -28 0 -155 -9 -284 -20
-489 -42 -642 -50 -921 -50 l-286 0 -7 29 c-10 46 8 66 72 84 85 24 331 54
653 82 314 26 646 28 753 5z m118 -221 c23 -46 21 -84 -9 -145 -13 -29 -20
-34 -42 -30 -14 3 -335 8 -715 11 -379 3 -701 8 -715 11 -19 5 -34 24 -62 79
l-36 72 41 -9 c96 -22 831 4 1152 41 39 5 136 9 217 10 l148 1 21 -41z m-640
-229 l616 -9 339 -191 c186 -106 344 -196 351 -201 6 -6 16 -38 22 -73 42
-243 -47 -458 -258 -618 -36 -27 -120 -76 -186 -108 -297 -145 -685 -224
-1271 -261 -298 -18 -1095 -7 -1399 20 -529 47 -859 107 -1233 223 -104 33
-130 44 -120 53 7 7 186 101 398 210 212 109 513 264 670 345 157 81 463 239
680 350 217 112 422 218 455 237 71 39 -3 37 936 23z m-3886 -1775 c248 -8
1118 -35 1935 -60 4618 -140 5852 -184 6105 -216 310 -39 500 -123 566 -251
25 -49 24 -59 -9 -91 l-29 -28 -114 11 c-578 51 -3769 95 -8279 115 -762 4
-1386 8 -1388 10 -7 7 160 322 196 370 86 113 267 172 492 159 41 -2 278 -11
525 -19z"/>
<path d="M7445 2096 c-17 -7 -43 -28 -58 -45 -57 -68 -22 -155 71 -180 75 -21
132 7 158 75 43 112 -58 199 -171 150z m113 -52 c46 -30 8 -125 -55 -137 -34
-6 -90 18 -104 45 -17 33 8 78 55 99 42 19 64 17 104 -7z"/>
<path d="M7872 2063 c-77 -37 -100 -127 -48 -182 84 -88 236 -41 236 74 0 24
-5 55 -11 68 -24 53 -111 73 -177 40z m108 -38 c37 -19 46 -53 26 -94 -20 -37
-44 -51 -89 -51 -38 0 -87 37 -87 67 0 28 29 63 64 79 40 17 51 17 86 -1z"/>
<path d="M8355 2056 c-48 -21 -85 -71 -85 -116 0 -56 37 -96 103 -111 48 -10
57 -9 94 9 63 32 89 112 58 172 -28 55 -104 75 -170 46z m94 -41 c50 -25 55
-70 12 -117 -22 -25 -36 -32 -64 -31 -37 1 -82 25 -91 49 -10 27 20 79 55 97
42 20 53 21 88 2z"/>
<path d="M8793 2039 c-44 -9 -80 -34 -103 -72 -26 -41 -25 -78 1 -111 62 -79
200 -74 235 9 45 108 -24 198 -133 174z m83 -65 c32 -31 27 -67 -17 -106 -35
-33 -71 -36 -116 -8 -72 43 -20 138 75 140 22 0 41 -8 58 -26z"/>
<path d="M1028 1500 c-47 -30 -40 -88 18 -142 59 -54 593 -395 1149 -733 116
-70 227 -138 247 -151 l37 -24 788 -30 c2021 -77 4532 -170 4592 -170 l67 0
539 471 c681 594 642 559 651 593 15 62 -32 114 -124 136 -87 20 -479 29
-1672 40 -1899 16 -6272 23 -6292 10z m4832 -425 c963 -46 1715 -180 2195
-389 111 -49 195 -90 193 -96 -2 -4 -79 -75 -171 -158 l-168 -152 -86 0 c-47
0 -194 5 -327 10 -132 6 -961 37 -1841 70 -880 33 -1717 64 -1860 70 -143 6
-491 19 -774 30 l-514 19 -67 40 c-60 36 -70 46 -95 102 -81 181 32 296 340
344 219 34 1253 101 1830 118 262 8 1115 3 1345 -8z"/>
<path d="M7060 27 c0 -11 19 -16 81 -22 48 -4 84 -3 88 3 3 5 13 12 21 15 8 3
-21 6 -65 6 -44 1 -90 4 -102 7 -16 5 -23 2 -23 -9z"/>
<path d="M7395 10 c30 -8 262 -13 254 -6 -2 2 -67 6 -144 8 -77 3 -126 2 -110
-2z"/>
</g>
</svg>
